# Blender v3.4.1 OBJ File: 'wijnhaven 2.blend'
# www.blender.org
mtllib raam 1.mtl
o Cube.003
v -0.281194 0.095579 0.462437
v -0.281194 0.462437 0.462437
v -0.281194 0.095579 -0.462437
v -0.281194 0.462437 -0.462437
v 0.281194 0.095579 0.462437
v 0.281194 0.462437 0.462437
v 0.281194 0.095579 -0.462437
v 0.281194 0.462437 -0.462437
v 0.210292 0.462437 -0.462437
v 0.210292 0.462437 0.462437
v -0.212730 0.462437 0.462437
v -0.212730 0.462437 -0.462437
v -0.281194 0.095579 -0.122028
v -0.281194 0.462437 -0.122028
v 0.281194 0.095579 -0.122028
v 0.281194 0.462437 -0.122028
v 0.210292 0.462437 -0.122028
v -0.212730 0.462437 -0.122028
v -0.281194 0.462437 -0.143935
v 0.281194 0.095579 -0.143935
v -0.281194 0.095579 -0.143935
v 0.281194 0.462437 -0.143935
v 0.210292 0.462437 -0.143935
v -0.212730 0.462437 -0.143935
v -0.281194 0.095579 0.561231
v -0.281194 0.380461 0.561231
v 0.281194 0.380461 0.561231
v 0.281194 0.095579 0.561231
v 0.210292 0.095579 0.561231
v -0.212730 0.380461 0.561231
v -0.212730 0.095579 0.561231
v 0.210292 0.380461 0.561231
v -0.281194 0.095579 0.596285
v -0.281194 0.380461 0.596285
v 0.281194 0.380461 0.596285
v 0.281194 0.095579 0.596285
v 0.210292 0.095579 0.596285
v -0.212730 0.380461 0.596285
v 0.210292 0.380461 0.596285
v -0.212730 0.095579 0.596285
v -0.281194 0.462437 -0.520361
v -0.281194 0.095579 -0.520361
v 0.210292 0.462437 -0.520361
v 0.281194 0.462437 -0.520361
v 0.281194 0.095579 -0.520361
v -0.212730 0.462437 -0.520361
v -0.281194 0.380461 -0.671135
v -0.281194 0.095579 -0.671135
v -0.212730 0.095579 -0.671135
v 0.210292 0.380461 -0.671135
v 0.281194 0.380461 -0.671135
v 0.281194 0.095579 -0.671135
v -0.212730 0.380461 -0.671135
v 0.210292 0.095579 -0.671135
v -0.212730 0.439665 -0.462706
v 0.210292 0.439665 -0.462706
v 0.210292 0.439665 0.462169
v 0.210292 0.439665 -0.122296
v -0.212730 0.439665 0.462169
v -0.212730 0.439665 -0.122296
v -0.182538 0.439665 -0.437432
v 0.180100 0.439665 -0.437432
v 0.180100 0.439665 -0.122296
v 0.180100 0.439665 0.436895
v -0.182538 0.439665 0.436895
v -0.182538 0.439665 -0.122296
v 0.210292 0.439665 -0.144204
v -0.212730 0.439665 -0.144204
v 0.180100 0.439665 -0.142577
v -0.182538 0.439665 -0.142577
v -0.212730 0.095579 -0.663585
v 0.210292 0.095579 -0.663585
v -0.212730 0.439665 -0.520629
v 0.210292 0.439665 -0.520629
v -0.212730 0.357689 -0.671404
v 0.210292 0.357689 -0.671404
v 0.210292 0.095579 0.550183
v -0.212730 0.095579 0.550183
v -0.212730 0.430072 -0.464284
v 0.210292 0.430072 -0.464284
v 0.210292 0.352494 0.549914
v 0.210292 0.425652 0.461747
v -0.212730 0.425652 0.461747
v -0.212730 0.352494 0.549914
v -0.182538 0.427457 -0.437432
v 0.180100 0.427457 -0.437432
v 0.180100 0.427457 -0.122296
v 0.180100 0.427457 0.436895
v -0.182538 0.427457 0.436895
v -0.182538 0.427457 -0.122296
v 0.180100 0.427457 -0.142577
v -0.182538 0.427457 -0.142577
v -0.212730 0.430072 -0.513079
v 0.210292 0.430072 -0.513079
v -0.212730 0.348096 -0.663853
v 0.210292 0.348096 -0.663853
v -0.281194 0.119794 0.462437
v -0.281194 0.119794 -0.462437
v -0.281194 0.119794 -0.122028
v -0.281194 0.119794 -0.143935
v -0.281194 0.119794 0.561231
v -0.212730 0.119794 0.561231
v -0.281194 0.119794 0.596285
v -0.212730 0.119794 0.596285
v -0.281194 0.119794 -0.520361
v -0.281194 0.119794 -0.671135
v -0.212730 0.119794 -0.671135
vt 0.149121 0.222093
vt 0.054231 0.222093
vt 0.054231 0.075927
vt 0.149121 0.075927
vt 0.176656 0.515433
vt 0.207837 0.515433
vt 0.207837 0.542016
vt 0.176656 0.542016
vt 0.476279 0.224159
vt 0.577875 0.224159
vt 0.577875 0.492380
vt 0.476279 0.492380
vt 0.432788 0.090991
vt 0.400497 0.090991
vt 0.400497 0.045653
vt 0.432788 0.045653
vt 0.207837 0.359213
vt 0.176656 0.359213
vt 0.176656 0.090991
vt 0.207837 0.090991
vt 0.432788 0.359213
vt 0.400497 0.359213
vt 0.060469 0.573891
vt 0.132657 0.573891
vt 0.139363 0.573891
vt 0.577875 0.067939
vt 0.476279 0.067939
vt 0.476279 0.041356
vt 0.577875 0.041356
vt 0.036591 0.855964
vt 0.036591 0.732955
vt 0.036500 0.846132
vt 0.597075 0.524196
vt 0.597075 0.255974
vt 0.590768 0.255851
vt 0.590768 0.524072
vt 0.574373 0.569534
vt 0.087905 0.891361
vt 0.087813 0.881528
vt 0.037767 0.077529
vt 0.037767 0.104111
vt 0.044073 0.103988
vt 0.044073 0.077405
vt 0.037767 0.528553
vt 0.044073 0.528430
vt 0.037767 0.250277
vt 0.044073 0.250154
vt 0.432788 0.369267
vt 0.400497 0.369267
vt 0.207837 0.369267
vt 0.176656 0.369267
vt 0.476279 0.214105
vt 0.577875 0.214105
vt 0.149121 0.500369
vt 0.054231 0.500369
vt 0.054231 0.232147
vt 0.149121 0.232147
vt 0.432788 0.515433
vt 0.400497 0.515433
vt 0.037767 0.260331
vt 0.044073 0.260208
vt 0.597075 0.245920
vt 0.597075 0.099754
vt 0.590768 0.099631
vt 0.590768 0.245797
vt 0.060469 0.589978
vt 0.132657 0.589978
vt 0.149121 0.545707
vt 0.155828 0.545707
vt 0.155828 0.561794
vt 0.149121 0.561794
vt 0.176656 0.045653
vt 0.207837 0.045653
vt 0.555173 0.537719
vt 0.476279 0.537719
vt 0.155828 0.500369
vt 0.207837 0.247383
vt 0.207837 0.367008
vt 0.176656 0.367008
vt 0.176656 0.247383
vt 0.432788 0.236270
vt 0.432788 0.367008
vt 0.400497 0.367008
vt 0.400497 0.236270
vt 0.400497 0.029566
vt 0.432788 0.029566
vt 0.176656 0.029566
vt 0.207837 0.029566
vt 0.555173 0.553806
vt 0.476279 0.553805
vt 0.495478 0.569534
vt 0.495478 0.585621
vt 0.574373 0.585621
vt 0.494766 0.859172
vt 0.443452 0.894568
vt 0.443544 0.884735
vt 0.494858 0.849339
vt 0.105744 0.843157
vt 0.144063 0.843157
vt 0.144063 0.908260
vt 0.105744 0.908260
vt 0.432788 0.542016
vt 0.400497 0.542016
vt 0.054231 0.049345
vt 0.149121 0.049345
vt 0.652675 0.066609
vt 0.963427 0.066609
vt 0.963427 0.357987
vt 0.652675 0.357987
vt 0.381670 0.710504
vt 0.381670 0.833513
vt 0.421354 0.833513
vt 0.421354 0.710504
vt 0.106586 0.720960
vt 0.106586 0.833513
vt 0.144905 0.833513
vt 0.144905 0.720960
vt 0.494766 0.736162
vt 0.494766 0.746618
vt 0.384198 0.842088
vt 0.423882 0.842088
vt 0.423882 0.907191
vt 0.384198 0.907191
vt 0.098718 0.724167
vt 0.098718 0.872117
vt 0.047404 0.836721
vt 0.047404 0.724167
vt 0.431655 0.868910
vt 0.431655 0.710504
vt 0.482969 0.710504
vt 0.482969 0.833513
vt 0.586888 0.523879
vt 0.566627 0.564341
vt 0.674392 0.963136
vt 0.525630 0.963136
vt 0.536260 0.943722
vt 0.674037 0.943722
vt 0.540784 0.938069
vt 0.667803 0.938069
vt 0.678345 0.663242
vt 0.976544 0.658592
vt 0.928927 0.682981
vt 0.678875 0.685365
vt 0.525059 0.663242
vt 0.534909 0.686706
vt 0.976544 0.958486
vt 0.928927 0.943722
vt 0.671275 0.663242
vt 0.671798 0.685431
vt 0.681221 0.943722
vt 0.681078 0.963136
vt 0.921590 0.931480
vt 0.920815 0.694279
vt 0.207837 0.394178
vt 0.400497 0.394178
vt 0.400497 0.389775
vt 0.207837 0.389775
vt 0.492288 0.845197
vt 0.492197 0.736162
vt 0.686567 0.936131
vt 0.597075 0.073172
vt 0.590768 0.073048
vt 0.400497 0.091308
vt 0.207837 0.091308
vt 0.207837 0.050847
vt 0.400497 0.050847
vt 0.654400 0.395832
vt 0.965153 0.395832
vt 0.965153 0.549472
vt 0.654400 0.549472
vt 0.402674 0.104600
vt 0.402674 0.222503
vt 0.210014 0.222503
vt 0.210014 0.104600
vt 0.145748 0.842151
vt 0.382513 0.842151
vt 0.382513 0.907254
vt 0.145748 0.907254
vt 0.207837 0.516281
vt 0.400497 0.516281
vt 0.400497 0.538674
vt 0.207837 0.538674
vt 0.145748 0.724402
vt 0.145748 0.833437
vt 0.382513 0.833437
vt 0.382513 0.724402
vt 0.495478 0.564464
vt 0.920321 0.693547
vt 0.687039 0.695097
vt 0.665316 0.696260
vt 0.539221 0.696260
vt 0.440974 0.880593
vt 0.039069 0.841989
vt 0.090383 0.877386
vt 0.400497 0.394178
vt 0.207837 0.394178
vt 0.207837 0.387747
vt 0.400497 0.387747
vt 0.046730 0.103263
vt 0.046730 0.080870
vt 0.039161 0.732955
vt 0.588111 0.076513
vt 0.588111 0.098906
vt 0.139363 0.568821
vt 0.068214 0.568698
vt 0.047954 0.528236
vt 0.098718 0.713711
vt 0.047404 0.713711
vt 0.106586 0.710504
vt 0.144905 0.710504
vt 0.155828 0.075927
vt 0.155828 0.049345
vt 0.207837 0.236270
vt 0.176656 0.236270
vt 0.076933 0.545707
vt 0.076933 0.561794
vt 0.139363 0.589978
vt 0.155828 0.232147
vt 0.155828 0.222093
vn -1.0000 -0.0000 0.0000
vn 0.0000 1.0000 0.0000
vn 1.0000 -0.0000 0.0000
vn 0.0000 0.7696 0.6386
vn 0.9998 0.0000 -0.0176
vn 0.0000 -0.0000 1.0000
vn 0.0000 0.8785 -0.4777
vn 0.0000 -0.0000 -1.0000
vn 0.0000 0.1624 -0.9867
vn 0.0000 0.0010 1.0000
vn 0.0000 -0.0011 -1.0000
vn 0.0000 -0.0301 0.9995
usemtl Material.001
s off
f 100/1/1 19/2/1 4/3/1 98/4/1
f 4/5/2 12/6/2 46/7/2 41/8/2
f 15/9/3 16/10/3 6/11/3 5/12/3
f 6/13/4 10/14/4 32/15/4 27/16/4
f 18/17/2 14/18/2 2/19/2 11/20/2
f 16/21/2 17/22/2 10/14/2 6/13/2
f 30/23/5 102/24/5 31/25/5
f 8/26/3 7/27/3 45/28/3 44/29/3
f 50/30/3 54/31/3 76/32/3
f 10/33/1 17/34/1 58/35/1 57/36/1
f 32/37/1 10/33/1 57/36/1
f 43/38/1 50/30/1 76/32/1 74/39/1
f 46/40/3 12/41/3 55/42/3 73/43/3
f 11/44/3 30/23/3 59/45/3
f 12/41/3 24/46/3 68/47/3 55/42/3
f 22/48/2 23/49/2 17/22/2 16/21/2
f 24/50/2 19/51/2 14/18/2 18/17/2
f 20/52/3 22/53/3 16/10/3 15/9/3
f 97/54/1 2/55/1 14/56/1 99/57/1
f 7/27/3 8/26/3 22/53/3 20/52/3
f 12/6/2 4/5/2 19/51/2 24/50/2
f 8/58/2 9/59/2 23/49/2 22/48/2
f 24/46/3 18/60/3 60/61/3 68/47/3
f 18/60/3 11/44/3 59/45/3 60/61/3
f 23/62/1 9/63/1 56/64/1 67/65/1
f 99/57/1 14/56/1 19/2/1 100/1/1
f 102/24/3 30/23/3 38/66/3 104/67/3
f 101/68/1 25/69/1 33/70/1 103/71/1
f 17/34/1 23/62/1 67/65/1 58/35/1
f 11/20/4 2/19/4 26/72/4 30/73/4
f 5/12/3 6/11/3 27/74/3 28/75/3
f 97/54/1 1/76/1 25/69/1 101/68/1
f 104/77/6 38/78/6 34/79/6 103/80/6
f 36/81/6 35/82/6 39/83/6 37/84/6
f 27/16/2 32/15/2 39/85/2 35/86/2
f 30/73/2 26/72/2 34/87/2 38/88/2
f 28/75/3 27/74/3 35/89/3 36/90/3
f 32/37/1 29/91/1 37/92/1 39/93/1
f 53/94/3 46/95/3 73/96/3 75/97/3
f 41/98/7 46/99/7 53/100/7 47/101/7
f 9/59/2 8/58/2 44/102/2 43/103/2
f 98/4/1 4/3/1 41/104/1 105/105/1
f 87/106/2 90/107/2 89/108/2 88/109/2
f 54/110/8 50/111/8 51/112/8 52/113/8
f 106/114/8 47/115/8 53/116/8 107/117/8
f 49/118/1 107/119/1 53/94/1 75/97/1
f 43/120/7 44/121/7 51/122/7 50/123/7
f 105/124/1 41/125/1 47/126/1 106/127/1
f 44/128/3 45/129/3 52/130/3 51/131/3
f 32/37/1 57/36/1 82/132/1 81/133/1
f 67/134/2 56/135/2 62/136/2 69/137/2
f 69/137/1 62/136/1 86/138/1 91/139/1
f 60/140/2 59/141/2 65/142/2 66/143/2
f 56/135/2 55/144/2 61/145/2 62/136/2
f 59/141/2 57/146/2 64/147/2 65/142/2
f 68/148/2 60/140/2 66/143/2 70/149/2
f 69/137/2 70/149/2 66/143/2 63/150/2
f 57/146/2 58/151/2 63/150/2 64/147/2
f 65/142/8 64/147/8 88/152/8 89/153/8
f 55/144/2 68/148/2 70/149/2 61/145/2
f 58/151/2 67/134/2 69/137/2 63/150/2
f 55/154/9 56/155/9 80/156/9 79/157/9
f 49/118/3 75/97/3 95/158/3 71/159/3
f 64/147/1 63/150/1 87/160/1 88/152/1
f 9/63/1 43/161/1 74/162/1 56/64/1
f 82/163/4 83/164/4 84/165/4 81/166/4
f 86/167/2 85/168/2 92/169/2 91/170/2
f 77/171/10 81/172/10 84/173/10 78/174/10
f 93/175/7 94/176/7 96/177/7 95/178/7
f 79/179/2 80/180/2 94/181/2 93/182/2
f 71/183/11 95/184/11 96/185/11 72/186/11
f 29/91/1 32/37/1 81/133/1 77/187/1
f 66/143/3 65/142/3 89/188/3 90/189/3
f 61/145/3 70/149/3 92/190/3 85/191/3
f 75/97/3 73/96/3 93/192/3 95/158/3
f 70/149/8 69/137/8 91/139/8 92/190/8
f 74/39/1 76/32/1 96/193/1 94/194/1
f 57/195/12 59/196/12 83/197/12 82/198/12
f 73/43/3 55/42/3 79/199/3 93/200/3
f 76/32/1 54/31/1 72/201/1 96/193/1
f 63/150/6 66/143/6 90/189/6 87/160/6
f 56/64/1 74/162/1 94/202/1 80/203/1
f 30/23/3 31/25/3 78/204/3 84/205/3
f 59/45/3 30/23/3 84/205/3 83/206/3
f 62/136/6 61/145/6 85/191/6 86/138/6
f 42/207/1 105/124/1 106/127/1 48/208/1
f 48/209/8 106/114/8 107/117/8 49/210/8
f 3/211/1 98/4/1 105/105/1 42/212/1
f 40/213/6 104/77/6 103/80/6 33/214/6
f 2/55/1 97/54/1 101/68/1 26/215/1
f 26/215/1 101/68/1 103/71/1 34/216/1
f 31/25/3 102/24/3 104/67/3 40/217/3
f 13/218/1 99/57/1 100/1/1 21/219/1
f 1/76/1 97/54/1 99/57/1 13/218/1
f 21/219/1 100/1/1 98/4/1 3/211/1
