# Blender v3.4.1 OBJ File: 'wijnhaven 2.blend'
# www.blender.org
mtllib qqqqqqqqqqqqqqqqqqqqqqqqqqqqqqqqqqqqqq.mtl
o Cube
v 0.270008 0.211444 -0.609665
v 0.270008 0.175949 -0.609665
v 0.270008 0.211444 0.609665
v 0.270008 0.175949 0.609665
v -0.270008 0.211444 -0.609665
v -0.270008 0.175949 -0.609665
v -0.270008 0.211444 0.609665
v -0.270008 0.175949 0.609665
v -0.270008 0.175949 0.156274
v 0.270008 0.211444 0.156274
v -0.270008 0.211444 0.156274
v 0.270008 0.175949 0.156274
v -0.270008 0.175949 0.187611
v 0.270008 0.211444 0.187611
v -0.270008 0.211444 0.187611
v 0.270008 0.175949 0.187611
v -0.245858 0.211444 0.130264
v -0.245858 0.211444 -0.583655
v 0.245858 0.211444 -0.583655
v 0.245858 0.211444 0.130264
v 0.235387 0.211444 0.582607
v -0.235387 0.211444 0.582607
v 0.235387 0.211444 0.214669
v -0.235387 0.211444 0.214669
v -0.245858 0.227689 0.130264
v -0.245858 0.227689 -0.583655
v 0.245858 0.227689 -0.583655
v 0.245858 0.227689 0.130264
v -0.226641 0.227689 0.102364
v -0.226641 0.227689 -0.555755
v 0.226641 0.227689 -0.555755
v 0.226641 0.227689 0.102364
v -0.226641 0.217068 0.102364
v -0.226641 0.217068 -0.555755
v 0.226641 0.217068 -0.555755
v 0.226641 0.217068 0.102364
v 0.235387 0.201487 0.582607
v -0.235387 0.201487 0.582607
v 0.235387 0.201487 0.214669
v -0.235387 0.201487 0.214669
v 0.270008 0.175949 -0.652345
v -0.270008 0.175949 -0.652345
v 0.270008 0.211444 -0.652345
v -0.270008 0.211444 -0.652345
vt 0.041951 0.018139
vt 0.492112 0.018139
vt 0.463252 0.038729
vt 0.070811 0.038729
vt 0.422422 0.235868
vt 0.422422 0.290895
vt 0.104365 0.290895
vt 0.104365 0.235868
vt 0.069310 0.609152
vt 0.094356 0.609152
vt 0.094356 0.421709
vt 0.069310 0.421709
vt 0.423786 0.057014
vt 0.423786 0.112040
vt 0.313695 0.112040
vt 0.313695 0.057014
vt 0.041951 0.946015
vt 0.492112 0.946015
vt 0.492112 0.978493
vt 0.041951 0.978493
vt 0.440228 0.419614
vt 0.465273 0.419614
vt 0.465273 0.607056
vt 0.440228 0.607056
vt 0.101922 0.410741
vt 0.101922 0.435787
vt 0.109592 0.435787
vt 0.109592 0.410741
vt 0.041951 0.363157
vt 0.062083 0.382950
vt 0.062083 0.926222
vt 0.091625 0.054532
vt 0.091625 0.109559
vt 0.201717 0.109559
vt 0.201717 0.054532
vt 0.427681 0.413475
vt 0.427681 0.438520
vt 0.420011 0.438520
vt 0.420011 0.413475
vt 0.492112 0.363157
vt 0.041951 0.339310
vt 0.492112 0.339310
vt 0.076353 0.866732
vt 0.076353 0.689669
vt 0.091749 0.689669
vt 0.091749 0.866732
vt 0.413570 0.600583
vt 0.115173 0.600583
vt 0.128518 0.589596
vt 0.400225 0.589596
vt 0.471980 0.382950
vt 0.471980 0.926222
vt 0.306313 0.078543
vt 0.210338 0.078543
vt 0.210338 0.063106
vt 0.306313 0.063106
vt 0.070811 0.318720
vt 0.463252 0.318720
vt 0.104581 0.649115
vt 0.421650 0.649115
vt 0.409259 0.658464
vt 0.116972 0.658464
vt 0.442174 0.695259
vt 0.442174 0.872321
vt 0.457571 0.872321
vt 0.457571 0.695259
vt 0.387901 0.715570
vt 0.134333 0.715570
vt 0.134333 0.697074
vt 0.387901 0.697074
vt 0.135120 0.859924
vt 0.381750 0.859924
vt 0.381750 0.841934
vt 0.135120 0.841934
vt 0.124273 0.860765
vt 0.124273 0.707631
vt 0.119691 0.707631
vt 0.119691 0.860765
vt 0.419311 0.910571
vt 0.102241 0.910571
vt 0.114632 0.901222
vt 0.406920 0.901222
vt 0.100427 0.905254
vt 0.100427 0.666026
vt 0.112818 0.675375
vt 0.112818 0.895905
vt 0.439250 0.659725
vt 0.439250 0.898952
vt 0.426859 0.889603
vt 0.426859 0.669074
vt 0.935859 0.341679
vt 0.935859 0.972027
vt 0.530536 0.972027
vt 0.530536 0.341679
vt 0.414168 0.701031
vt 0.414168 0.864255
vt 0.404102 0.864255
vt 0.404102 0.701031
vt 0.399812 0.670843
vt 0.122920 0.670843
vt 0.122920 0.683727
vt 0.399812 0.683727
vt 0.127627 0.873507
vt 0.391842 0.873507
vt 0.391842 0.885802
vt 0.127627 0.885802
vt 0.938754 0.032012
vt 0.524142 0.032012
vt 0.524142 0.302200
vt 0.938754 0.302200
vt 0.122543 0.219449
vt 0.399818 0.219449
vt 0.399818 0.204012
vt 0.122543 0.204012
vt 0.393455 0.185503
vt 0.133319 0.185503
vt 0.133319 0.178476
vt 0.393455 0.178476
vt 0.211579 0.100874
vt 0.307554 0.100874
vt 0.307554 0.085437
vt 0.211579 0.085437
vt 0.121944 0.549478
vt 0.121944 0.574524
vt 0.420340 0.574524
vt 0.420340 0.549478
vt 0.440228 0.409170
vt 0.465273 0.409170
vt 0.094356 0.411265
vt 0.069310 0.411265
vn 0.0000 1.0000 0.0000
vn 0.0000 0.0000 1.0000
vn -1.0000 0.0000 0.0000
vn 1.0000 0.0000 0.0000
vn 0.0000 0.0000 -1.0000
usemtl Material
s off
f 7/1/1 3/2/1 21/3/1 22/4/1
f 4/5/2 3/6/2 7/7/2 8/8/2
f 9/9/3 11/10/3 5/11/3 6/12/3
f 16/13/4 14/14/4 3/15/4 4/16/4
f 5/17/1 1/18/1 43/19/1 44/20/1
f 2/21/4 1/22/4 10/23/4 12/24/4
f 13/25/3 15/26/3 11/27/3 9/28/3
f 5/17/1 11/29/1 17/30/1 18/31/1
f 8/32/3 7/33/3 15/34/3 13/35/3
f 12/36/4 10/37/4 14/38/4 16/39/4
f 10/40/1 11/29/1 15/41/1 14/42/1
f 17/43/2 20/44/2 28/45/2 25/46/2
f 1/47/1 5/48/1 18/49/1 19/50/1
f 11/29/1 10/40/1 20/51/1 17/30/1
f 10/40/1 1/18/1 19/52/1 20/51/1
f 24/53/4 22/54/4 38/55/4 40/56/4
f 15/41/1 7/1/1 22/4/1 24/57/1
f 3/2/1 14/42/1 23/58/1 21/3/1
f 14/42/1 15/41/1 24/57/1 23/58/1
f 28/59/1 27/60/1 31/61/1 32/62/1
f 19/63/5 18/64/5 26/65/5 27/66/5
f 20/67/4 19/68/4 27/69/4 28/70/4
f 18/71/3 17/72/3 25/73/3 26/74/3
f 29/75/5 32/76/5 36/77/5 33/78/5
f 26/79/1 25/80/1 29/81/1 30/82/1
f 25/83/1 28/84/1 32/85/1 29/86/1
f 27/87/1 26/88/1 30/89/1 31/90/1
f 35/91/1 34/92/1 33/93/1 36/94/1
f 31/95/2 30/96/2 34/97/2 35/98/2
f 32/99/3 31/100/3 35/101/3 36/102/3
f 30/103/4 29/104/4 33/105/4 34/106/4
f 39/107/1 40/108/1 38/109/1 37/110/1
f 22/111/5 21/112/5 37/113/5 38/114/5
f 23/115/2 24/116/2 40/117/2 39/118/2
f 21/119/3 23/120/3 39/121/3 37/122/3
f 42/123/5 44/124/5 43/125/5 41/126/5
f 1/22/4 2/21/4 41/127/4 43/128/4
f 6/12/3 5/11/3 44/129/3 42/130/3
